<svg width="42" height="42" viewBox="0 0 42 42" fill="none" xmlns="http://www.w3.org/2000/svg">
<rect width="42" height="42" fill="#E4E4E4"/>
<g clip-path="url(#clip0_30_13827)">
<rect width="1440" height="3694" transform="translate(-890 -3596)" fill="white"/>
<g clip-path="url(#clip1_30_13827)">
<rect width="1440" height="278" transform="translate(-890 -180)" fill="#011C44"/>
<path fill-rule="evenodd" clip-rule="evenodd" d="M-67.2973 15.8746C-70.4536 -32.3225 -84.8093 -81.5592 -61.5401 -123.406C-31.6493 -177.161 13.2369 -242.411 72.7418 -235.97C132.228 -229.531 143.376 -144.756 181.644 -97.0813C213.431 -57.4799 272.899 -35.6138 274.89 15.8746C276.903 67.9243 229.075 104.611 190.745 138.27C156.518 168.327 117.588 193.55 72.7419 193.391C28.034 193.233 -16.1461 173.327 -44.4583 137.438C-70.6606 104.223 -64.4933 58.6925 -67.2973 15.8746Z" stroke="#011F4A" stroke-width="4"/>
<path d="M21 13.4531C19.5074 13.4531 18.0483 13.8957 16.8072 14.725C15.5661 15.5543 14.5988 16.7329 14.0276 18.1119C13.4564 19.4909 13.3069 21.0084 13.5981 22.4723C13.8893 23.9363 14.6081 25.281 15.6636 26.3364C16.719 27.3919 18.0637 28.1107 19.5277 28.4019C20.9916 28.6931 22.5091 28.5436 23.8881 27.9724C25.2671 27.4012 26.4457 26.4339 27.275 25.1928C28.1043 23.9517 28.5469 22.4926 28.5469 21C28.5469 18.9984 27.7518 17.0789 26.3364 15.6636C24.9211 14.2482 23.0016 13.4531 21 13.4531ZM21 26.5781C19.8968 26.5781 18.8183 26.251 17.901 25.638C16.9836 25.0251 16.2687 24.1539 15.8465 23.1347C15.4243 22.1154 15.3138 20.9938 15.5291 19.9118C15.7443 18.8297 16.2756 17.8358 17.0557 17.0557C17.8358 16.2756 18.8297 15.7443 19.9118 15.5291C20.9938 15.3138 22.1154 15.4243 23.1347 15.8465C24.1539 16.2687 25.0251 16.9836 25.638 17.901C26.251 18.8183 26.5781 19.8968 26.5781 21C26.5738 22.4781 25.9847 23.8944 24.9395 24.9395C23.8944 25.9847 22.4781 26.5738 21 26.5781ZM28.2188 4.92188H13.7812C11.4316 4.92187 9.17818 5.85527 7.51673 7.51673C5.85527 9.17818 4.92188 11.4316 4.92188 13.7812V28.2188C4.92187 30.5684 5.85527 32.8218 7.51673 34.4833C9.17818 36.1447 11.4316 37.0781 13.7812 37.0781H28.2188C30.5684 37.0781 32.8218 36.1447 34.4833 34.4833C36.1447 32.8218 37.0781 30.5684 37.0781 28.2188V13.7812C37.0781 11.4316 36.1447 9.17818 34.4833 7.51673C32.8218 5.85527 30.5684 4.92188 28.2188 4.92188ZM35.1094 28.2188C35.1094 30.0463 34.3834 31.7989 33.0912 33.0912C31.7989 34.3834 30.0463 35.1094 28.2188 35.1094H13.7812C11.9537 35.1094 10.2011 34.3834 8.90884 33.0912C7.6166 31.7989 6.89062 30.0463 6.89062 28.2188V13.7812C6.89062 11.9537 7.6166 10.2011 8.90884 8.90884C10.2011 7.6166 11.9537 6.89062 13.7812 6.89062H28.2188C30.0463 6.89062 31.7989 7.6166 33.0912 8.90884C34.3834 10.2011 35.1094 11.9537 35.1094 13.7812V28.2188ZM31.1719 12.4688C31.1719 12.7932 31.0757 13.1104 30.8954 13.3802C30.7151 13.65 30.4589 13.8603 30.1591 13.9845C29.8593 14.1087 29.5294 14.1412 29.2112 14.0779C28.8929 14.0145 28.6006 13.8583 28.3712 13.6288C28.1417 13.3994 27.9855 13.1071 27.9221 12.7888C27.8588 12.4706 27.8913 12.1407 28.0155 11.8409C28.1397 11.5411 28.35 11.2849 28.6198 11.1046C28.8896 10.9243 29.2068 10.8281 29.5312 10.8281C29.9664 10.8281 30.3837 11.001 30.6913 11.3087C30.999 11.6163 31.1719 12.0336 31.1719 12.4688Z" fill="white"/>
</g>
</g>
<defs>
<clipPath id="clip0_30_13827">
<rect width="1440" height="3694" fill="white" transform="translate(-890 -3596)"/>
</clipPath>
<clipPath id="clip1_30_13827">
<rect width="1440" height="278" fill="white" transform="translate(-890 -180)"/>
</clipPath>
</defs>
</svg>
